# xmcd CD database file
#
# Track frame offsets:
#	150
#	22447
#	42527
#	84237
#
# Disc length: 1355 seconds
#
# Revision: 0
# Processed by: cddbd v1.5.1PL0 Copyright (c) Steve Scherf et al.
# Submitted via: CDex 1.51
#
DISCID=2f054904
DTITLE=Love Comedy - 元気の素
DYEAR=1999
DGENRE=Pop
TTITLE0=愛のせいだよ
TTITLE1=勇敢なピエロ
TTITLE2=強い花になりたい
TTITLE3=ラプ&ピース（トーク）
EXTD=YEAR: 1999
EXTT0=
EXTT1=
EXTT2=
EXTT3=
PLAYORDER=
